<svg width="26" height="26" viewBox="0 0 26 26" fill="none" xmlns="http://www.w3.org/2000/svg">
<path d="M12.9999 14.0003C14.3185 14.0003 15.6074 13.6093 16.7037 12.8768C17.8 12.1442 18.6545 11.1031 19.1591 9.88488C19.6637 8.66671 19.7957 7.32627 19.5385 6.03306C19.2813 4.73985 18.6463 3.55197 17.714 2.61962C16.7816 1.68727 15.5937 1.05233 14.3005 0.795093C13.0073 0.537859 11.6669 0.669881 10.4487 1.17447C9.23052 1.67905 8.18933 2.53353 7.45679 3.62986C6.72424 4.72619 6.33325 6.01512 6.33325 7.33366C6.33537 9.10112 7.03843 10.7956 8.28821 12.0454C9.538 13.2952 11.2325 13.9982 12.9999 14.0003ZM12.9999 3.33366C13.791 3.33366 14.5644 3.56826 15.2222 4.00778C15.88 4.44731 16.3927 5.07202 16.6954 5.80293C16.9982 6.53383 17.0774 7.3381 16.9231 8.11402C16.7687 8.88995 16.3878 9.60268 15.8283 10.1621C15.2689 10.7215 14.5562 11.1025 13.7803 11.2568C13.0044 11.4111 12.2001 11.3319 11.4692 11.0292C10.7383 10.7264 10.1136 10.2137 9.67404 9.55594C9.23451 8.89815 8.99992 8.12479 8.99992 7.33366C8.99992 6.2728 9.42135 5.25538 10.1715 4.50523C10.9216 3.75509 11.9391 3.33366 12.9999 3.33366Z" fill="black"/>
<path d="M24.9812 24.4465C24.4006 21.7474 22.8736 19.3451 20.6762 17.6737C18.4788 16.0023 15.756 15.1721 12.9999 15.3332C10.2438 15.1721 7.52096 16.0023 5.32357 17.6737C3.12617 19.3451 1.59917 21.7474 1.01854 24.4465L0.758545 25.9998H25.2412L24.9812 24.4465ZM4.13055 23.3332C4.99055 21.2998 7.26654 17.9998 12.9999 17.9998C18.6812 17.9998 20.9772 21.2972 21.8545 23.3332H4.13055Z" fill="black"/>
</svg>
